<svg xmlns="http://www.w3.org/2000/svg" viewBox="0 0 640 480"><path fill="#006" d="M0 0h640v480H0z"/><path fill="#fff" d="M0 0v28l307 222h38.7L0 28V0h640v28L333 250h-38.7L640 28V0H0z"/><path fill="#fff" d="M266.7 0v250H373V0H266.7zM0 83.3v83.4h640V83.3H0z"/><path fill="#c00" d="M0 100v50h640v-50H0zM283 0v250h73.3V0H283zM0 250l253.3-183.3H320L66.7 250H0zM0 0l253.3 183.3h-66.6L0 33.3V0zm386.7 183.3L640 0h-66.7L320 183.3h66.7zM640 250L386.7 66.7H320L573.3 250H640z"/><g fill="#fff"><path d="M523.2 143.3l-20.7 21 6.3 33.5-29.3-15.5-29.3 15.5 6.3-33.5-20.7-21 33.5-6.3 15.5-29.3 15.5 29.3m-258.7 20.7l-15.5 29.3-33.5 6.3 20.7 21-6.3 33.5 29.3-15.5 29.3 15.5-6.3-33.5 20.7-21-33.5-6.3m56.7-163.3l-15.5 29.3-33.5 6.3 20.7 21-6.3 33.5 29.3-15.5 29.3 15.5-6.3-33.5 20.7-21-33.5-6.3m56.7 163.3l-15.5 29.3-33.5 6.3 20.7 21-6.3 33.5 29.3-15.5 29.3 15.5-6.3-33.5 20.7-21-33.5-6.3m147-112l-15.5 29.3-33.5 6.3 20.7 21-6.3 33.5 29.3-15.5 29.3 15.5-6.3-33.5 20.7-21-33.5-6.3"/></g></svg>
