<svg xmlns="http://www.w3.org/2000/svg" viewBox="0 0 640 480"><path fill="#f0f0f0" d="M0 0h640v480H0z"/><path fill="#ccc" d="M320 140c-50.8 0-92 41.2-92 92s41.2 92 92 92 92-41.2 92-92-41.2-92-92-92zm0 168c-42 0-76-34-76-76s34-76 76-76 76 34 76 76-34 76-76 76z"/><path fill="#ccc" d="M320 172c-33.1 0-60 26.9-60 60s26.9 60 60 60 60-26.9 60-60-26.9-60-60-60zm0 104c-24.3 0-44-19.7-44-44s19.7-44 44-44 44 19.7 44 44-19.7 44-44 44z"/><path fill="#ccc" d="M320 204c-15.5 0-28 12.5-28 28s12.5 28 28 28 28-12.5 28-28-12.5-28-28-28z"/></svg>
